<svg xmlns="http://www.w3.org/2000/svg" viewBox="0 0 512 512" fill="none">
  <rect width="512" height="512" rx="112" fill="#1a1a2e"/>
  <path d="M118 166c-35 35-35 91 0 126M78 126c-57 57-57 149 0 206" stroke="#2dd4bf" stroke-width="24" stroke-linecap="round"/>
  <path d="M282 166c35 35 35 91 0 126M322 126c57 57 57 149 0 206" stroke="#2dd4bf" stroke-width="24" stroke-linecap="round"/>
  <circle cx="200" cy="130" r="26" fill="#4ade80"/>
  <path d="M200 156v194M200 207l-78 143M200 207l78 143M149 300h102" stroke="#4ade80" stroke-width="28" stroke-linecap="round" stroke-linejoin="round"/>
  <rect x="272" y="272" width="158" height="166" rx="28" fill="#f8fafc" stroke="#1a1a2e" stroke-width="12"/>
  <path d="M310 317h82M310 357h58" stroke="#64748b" stroke-width="16" stroke-linecap="round"/>
  <path d="m310 400 24 22 54-55" stroke="#16a34a" stroke-width="20" stroke-linecap="round" stroke-linejoin="round"/>
</svg>
