<svg xmlns="http://www.w3.org/2000/svg" viewBox="0 0 512 512" fill="none">
  <rect width="512" height="512" fill="#1a1a2e"/>
  <path d="M132 176c-30 30-30 78 0 108M98 142c-49 49-49 127 0 176" stroke="#2dd4bf" stroke-width="22" stroke-linecap="round"/>
  <path d="M288 176c30 30 30 78 0 108M322 142c49 49 49 127 0 176" stroke="#2dd4bf" stroke-width="22" stroke-linecap="round"/>
  <circle cx="210" cy="148" r="24" fill="#4ade80"/>
  <path d="M210 172v170M210 216l-66 126M210 216l66 126M166 299h88" stroke="#4ade80" stroke-width="25" stroke-linecap="round" stroke-linejoin="round"/>
  <rect x="270" y="278" width="142" height="150" rx="25" fill="#f8fafc" stroke="#1a1a2e" stroke-width="11"/>
  <path d="M304 319h74M304 354h52" stroke="#64748b" stroke-width="14" stroke-linecap="round"/>
  <path d="m304 392 22 20 48-49" stroke="#16a34a" stroke-width="18" stroke-linecap="round" stroke-linejoin="round"/>
</svg>
